<mxfile host="app.diagrams.net" agent="Mozilla/5.0 (Windows NT 10.0; Win64; x64) AppleWebKit/537.36 (KHTML, like Gecko) Chrome/127.0.0.0 Safari/537.36 OPR/113.0.0.0 (Edition std-1)" version="24.8.0">
  <diagram name="Página-1" id="Rlw9WTACRi8JO7l7Mm7z">
    <mxGraphModel dx="1050" dy="576" grid="1" gridSize="10" guides="1" tooltips="1" connect="1" arrows="1" fold="1" page="1" pageScale="1" pageWidth="827" pageHeight="1169" math="0" shadow="0">
      <root>
        <mxCell id="0" />
        <mxCell id="1" parent="0" />
        <mxCell id="O2VvpaQGtP-XOHyDtoSd-12" value="Circulo" style="swimlane;fontStyle=1;align=center;verticalAlign=top;childLayout=stackLayout;horizontal=1;startSize=26;horizontalStack=0;resizeParent=1;resizeParentMax=0;resizeLast=0;collapsible=1;marginBottom=0;whiteSpace=wrap;html=1;" vertex="1" parent="1">
          <mxGeometry x="70" y="110" width="180" height="150" as="geometry" />
        </mxCell>
        <mxCell id="O2VvpaQGtP-XOHyDtoSd-13" value="+Raio: Double" style="text;strokeColor=none;fillColor=none;align=left;verticalAlign=top;spacingLeft=4;spacingRight=4;overflow=hidden;rotatable=0;points=[[0,0.5],[1,0.5]];portConstraint=eastwest;whiteSpace=wrap;html=1;" vertex="1" parent="O2VvpaQGtP-XOHyDtoSd-12">
          <mxGeometry y="26" width="180" height="26" as="geometry" />
        </mxCell>
        <mxCell id="O2VvpaQGtP-XOHyDtoSd-14" value="" style="line;strokeWidth=1;fillColor=none;align=left;verticalAlign=middle;spacingTop=-1;spacingLeft=3;spacingRight=3;rotatable=0;labelPosition=right;points=[];portConstraint=eastwest;strokeColor=inherit;" vertex="1" parent="O2VvpaQGtP-XOHyDtoSd-12">
          <mxGeometry y="52" width="180" height="8" as="geometry" />
        </mxCell>
        <mxCell id="O2VvpaQGtP-XOHyDtoSd-15" value="+Circulo(raio : Double)&lt;div&gt;+setRaio(raio : Double) : Void&lt;/div&gt;&lt;div&gt;+getRaio() : Double&lt;br&gt;&lt;div&gt;+CalcularArea()&amp;nbsp; : Double&lt;/div&gt;&lt;div&gt;+CalcularPerimetro() : Double&lt;/div&gt;&lt;/div&gt;" style="text;strokeColor=none;fillColor=none;align=left;verticalAlign=top;spacingLeft=4;spacingRight=4;overflow=hidden;rotatable=0;points=[[0,0.5],[1,0.5]];portConstraint=eastwest;whiteSpace=wrap;html=1;" vertex="1" parent="O2VvpaQGtP-XOHyDtoSd-12">
          <mxGeometry y="60" width="180" height="90" as="geometry" />
        </mxCell>
        <mxCell id="O2VvpaQGtP-XOHyDtoSd-16" value="UML Da Q&lt;span style=&quot;background-color: initial;&quot;&gt;uestão 8&lt;/span&gt;" style="text;html=1;align=center;verticalAlign=middle;resizable=0;points=[];autosize=1;strokeColor=none;fillColor=none;" vertex="1" parent="1">
          <mxGeometry x="85" y="60" width="130" height="30" as="geometry" />
        </mxCell>
        <mxCell id="O2VvpaQGtP-XOHyDtoSd-17" value="SituacaoFinanceira" style="swimlane;fontStyle=1;align=center;verticalAlign=top;childLayout=stackLayout;horizontal=1;startSize=26;horizontalStack=0;resizeParent=1;resizeParentMax=0;resizeLast=0;collapsible=1;marginBottom=0;whiteSpace=wrap;html=1;" vertex="1" parent="1">
          <mxGeometry x="390" y="110" width="380" height="178" as="geometry" />
        </mxCell>
        <mxCell id="O2VvpaQGtP-XOHyDtoSd-18" value="+Saldo Credito: Double&lt;div&gt;+Saldo Debito: Double&lt;span style=&quot;background-color: initial;&quot;&gt;&amp;nbsp;&lt;/span&gt;&lt;/div&gt;" style="text;strokeColor=none;fillColor=none;align=left;verticalAlign=top;spacingLeft=4;spacingRight=4;overflow=hidden;rotatable=0;points=[[0,0.5],[1,0.5]];portConstraint=eastwest;whiteSpace=wrap;html=1;" vertex="1" parent="O2VvpaQGtP-XOHyDtoSd-17">
          <mxGeometry y="26" width="380" height="44" as="geometry" />
        </mxCell>
        <mxCell id="O2VvpaQGtP-XOHyDtoSd-19" value="" style="line;strokeWidth=1;fillColor=none;align=left;verticalAlign=middle;spacingTop=-1;spacingLeft=3;spacingRight=3;rotatable=0;labelPosition=right;points=[];portConstraint=eastwest;strokeColor=inherit;" vertex="1" parent="O2VvpaQGtP-XOHyDtoSd-17">
          <mxGeometry y="70" width="380" height="8" as="geometry" />
        </mxCell>
        <mxCell id="O2VvpaQGtP-XOHyDtoSd-20" value="+SituacaoFinanceira(SaldoCreditos : Double, SaldoDebitos : Double)&lt;div&gt;+getSaldoCredito() : Double&lt;/div&gt;&lt;div&gt;+getSaldoDebito() :Double&lt;/div&gt;&lt;div&gt;+setSaldoCredito(creditoAdicionado : Double) : Void&amp;nbsp;&lt;/div&gt;&lt;div&gt;+setSaldoDebito(debitoAdicionado : Double)&amp;nbsp; : Void&lt;/div&gt;&lt;div&gt;+calcularSaldo() : Double&lt;/div&gt;" style="text;strokeColor=none;fillColor=none;align=left;verticalAlign=top;spacingLeft=4;spacingRight=4;overflow=hidden;rotatable=0;points=[[0,0.5],[1,0.5]];portConstraint=eastwest;whiteSpace=wrap;html=1;" vertex="1" parent="O2VvpaQGtP-XOHyDtoSd-17">
          <mxGeometry y="78" width="380" height="100" as="geometry" />
        </mxCell>
        <mxCell id="O2VvpaQGtP-XOHyDtoSd-21" value="UML Da Qustão 9" style="text;html=1;align=center;verticalAlign=middle;resizable=0;points=[];autosize=1;strokeColor=none;fillColor=none;" vertex="1" parent="1">
          <mxGeometry x="520" y="60" width="120" height="30" as="geometry" />
        </mxCell>
        <mxCell id="O2VvpaQGtP-XOHyDtoSd-27" value="" style="rounded=0;whiteSpace=wrap;html=1;strokeColor=default;fillColor=none;" vertex="1" parent="1">
          <mxGeometry x="90" y="60" width="120" height="30" as="geometry" />
        </mxCell>
        <mxCell id="O2VvpaQGtP-XOHyDtoSd-28" value="" style="rounded=0;whiteSpace=wrap;html=1;fillColor=none;" vertex="1" parent="1">
          <mxGeometry x="520" y="60" width="120" height="30" as="geometry" />
        </mxCell>
      </root>
    </mxGraphModel>
  </diagram>
</mxfile>
